<svg width="144" height="28" viewBox="0 0 144 28" fill="none" xmlns="http://www.w3.org/2000/svg">
<path d="M0.275568 27V0.818181H17.6108V5.3821H5.81108V11.6207H16.4602V16.1847H5.81108V27H0.275568ZM44.435 9.98438H38.8356C38.7333 9.25994 38.5245 8.61648 38.2092 8.05398C37.8938 7.48295 37.489 6.99716 36.9947 6.59659C36.5004 6.19602 35.9293 5.8892 35.2816 5.67614C34.6424 5.46307 33.9478 5.35653 33.1978 5.35653C31.8427 5.35653 30.6623 5.69318 29.6566 6.36648C28.6509 7.03125 27.8711 8.00284 27.3171 9.28125C26.7631 10.5511 26.4862 12.0937 26.4862 13.9091C26.4862 15.7756 26.7631 17.3437 27.3171 18.6136C27.8796 19.8835 28.6637 20.8423 29.6694 21.4901C30.6751 22.1378 31.8384 22.4616 33.1594 22.4616C33.9009 22.4616 34.587 22.3636 35.2177 22.1676C35.8569 21.9716 36.4237 21.6861 36.918 21.3111C37.4123 20.9276 37.8214 20.4631 38.1452 19.9176C38.4776 19.3722 38.7077 18.75 38.8356 18.0511L44.435 18.0767C44.2901 19.2784 43.9279 20.4375 43.3484 21.554C42.7773 22.6619 42.006 23.6548 41.0344 24.5327C40.0714 25.402 38.9208 26.0923 37.5827 26.6037C36.2532 27.1065 34.7489 27.358 33.07 27.358C30.7347 27.358 28.6467 26.8295 26.8058 25.7727C24.9734 24.7159 23.5245 23.1861 22.4592 21.1832C21.4023 19.1804 20.8739 16.7557 20.8739 13.9091C20.8739 11.054 21.4109 8.625 22.4847 6.62216C23.5586 4.61932 25.016 3.09375 26.8569 2.04545C28.6978 0.988636 30.7688 0.460226 33.07 0.460226C34.587 0.460226 35.9933 0.673295 37.2887 1.09943C38.5927 1.52557 39.7475 2.14773 40.7532 2.96591C41.7589 3.77557 42.5771 4.76846 43.2077 5.9446C43.8469 7.12074 44.256 8.46733 44.435 9.98438ZM70.3036 0.818181V27H65.5224L54.1317 10.5213H53.94V27H48.4045V0.818181H53.2624L64.5636 17.2841H64.7937V0.818181H70.3036ZM83.7237 27.3835C81.7038 27.3835 79.9652 26.9744 78.5078 26.1562C77.0589 25.3295 75.9425 24.1619 75.1584 22.6534C74.3743 21.1364 73.9822 19.3423 73.9822 17.2713C73.9822 15.2514 74.3743 13.4787 75.1584 11.9531C75.9425 10.4276 77.0462 9.23864 78.4695 8.38636C79.9013 7.53409 81.5803 7.10795 83.5064 7.10795C84.8018 7.10795 86.0078 7.31676 87.1243 7.73438C88.2493 8.14347 89.2294 8.76136 90.0646 9.58807C90.9084 10.4148 91.5646 11.4545 92.0334 12.7074C92.5021 13.9517 92.7365 15.4091 92.7365 17.0795V18.5753H76.1555V15.2003H87.6101C87.6101 14.4162 87.4396 13.7216 87.0987 13.1165C86.7578 12.5114 86.2848 12.0384 85.6797 11.6974C85.0831 11.348 84.3885 11.1733 83.5959 11.1733C82.7692 11.1733 82.0362 11.3651 81.397 11.7486C80.7663 12.1236 80.272 12.6307 79.9141 13.2699C79.5561 13.9006 79.3729 14.6037 79.3643 15.3793V18.5881C79.3643 19.5597 79.5433 20.3991 79.9013 21.1065C80.2678 21.8139 80.7834 22.3594 81.4482 22.7429C82.1129 23.1264 82.9013 23.3182 83.8132 23.3182C84.4183 23.3182 84.9723 23.233 85.4751 23.0625C85.978 22.892 86.4084 22.6364 86.7663 22.2955C87.1243 21.9545 87.397 21.5369 87.5845 21.0426L92.6215 21.375C92.3658 22.5852 91.8416 23.642 91.049 24.5455C90.2649 25.4403 89.2507 26.1392 88.0064 26.642C86.7706 27.1364 85.343 27.3835 83.7237 27.3835ZM100.023 27L94.6797 7.36364H100.19L103.232 20.5568H103.411L106.582 7.36364H111.989L115.211 20.4801H115.377L118.369 7.36364H123.866L118.535 27H112.769L109.394 14.6506H109.151L105.776 27H100.023ZM143.109 12.9631L138.123 13.2699C138.038 12.8437 137.855 12.4602 137.574 12.1193C137.292 11.7699 136.922 11.4929 136.461 11.2884C136.01 11.0753 135.468 10.9688 134.838 10.9688C133.994 10.9688 133.282 11.1477 132.703 11.5057C132.123 11.8551 131.833 12.3239 131.833 12.9119C131.833 13.3807 132.021 13.777 132.396 14.1009C132.771 14.4247 133.414 14.6847 134.326 14.8807L137.88 15.5966C139.789 15.9886 141.213 16.6193 142.15 17.4886C143.088 18.358 143.556 19.5 143.556 20.9148C143.556 22.2017 143.177 23.331 142.419 24.3026C141.669 25.2741 140.637 26.0327 139.325 26.5781C138.021 27.1151 136.517 27.3835 134.812 27.3835C132.213 27.3835 130.142 26.8423 128.599 25.7599C127.065 24.669 126.166 23.1861 125.902 21.3111L131.258 21.0298C131.42 21.8224 131.812 22.4276 132.434 22.8452C133.056 23.2543 133.853 23.4588 134.825 23.4588C135.779 23.4588 136.547 23.2756 137.126 22.9091C137.714 22.5341 138.012 22.0526 138.021 21.4645C138.012 20.9702 137.804 20.5653 137.395 20.25C136.985 19.9261 136.355 19.679 135.502 19.5085L132.102 18.831C130.184 18.4474 128.757 17.7827 127.819 16.8366C126.89 15.8906 126.426 14.6847 126.426 13.2188C126.426 11.9574 126.767 10.8707 127.449 9.95881C128.139 9.04688 129.106 8.34375 130.35 7.84943C131.603 7.35511 133.069 7.10795 134.748 7.10795C137.228 7.10795 139.18 7.6321 140.603 8.6804C142.035 9.72869 142.87 11.1562 143.109 12.9631Z" fill="black"/>
</svg>
